<svg xmlns="http://www.w3.org/2000/svg" width="416.564" height="72.113" viewBox="0 0 416.564 72.113">
  <g transform="translate(-0.78 -0.71)">
    <path d="M77.83,1C80.889.524,84.282.456,87,2.184c3.926,2.334,6.167,6.564,7.715,10.713,4.353,11.963,4.768,25.047,2.941,37.55-.409,3.2-1.635,6.818-4.774,8.273-1.858.625-4.235.458-5.523-1.189-2.081-2.514-1.424-5.982-1.251-8.973a76.519,76.519,0,0,0,.718-14.279,6.984,6.984,0,0,0-2.613-5.808,4.7,4.7,0,0,0-5.406.13c-2.644,1.715-4.378,4.477-5.8,7.226-3.48,7.164-5.406,14.936-8,22.434A18.375,18.375,0,0,1,58.5,67.189c-3.734,2.632-8.477,3.325-12.948,3.164C39.84,70.081,34.7,66.5,31.7,61.753,27.97,55.715,24.645,49.43,21,43.343c-1.158-1.771-2.718-4.037-5.133-3.777-2.539.235-3.5,3.078-3.418,5.27.18,7.511,3.814,14.354,5.109,21.667.452,2.254-.192,5.084-2.465,6.106a10.859,10.859,0,0,1-4.217.006c-2.019-.768-3.065-2.855-3.969-4.669A90.55,90.55,0,0,1,.78,44.266C.922,40.111.532,35.9,1.412,31.8c1.2-6.688,3.04-13.765,8-18.707,4.273-4.328,11.629-5.616,16.812-2.2,5.028,3.486,8.137,8.9,11.437,13.9,2.421,3.852,4.681,8.384,9.127,10.236A8.06,8.06,0,0,0,56.039,33.1c1.616-1.666,2.415-3.889,3.269-6,1.814-4.545,3.622-9.084,5.61-13.555C67.179,7.812,71.631,2.487,77.83,1Z" transform="translate(0 0)" fill="#00abe1"/>
    <path d="M12.065-36.982,12.3-33.12q3.9-4.546,10.664-4.546,7.417,0,10.151,5.674a13.117,13.117,0,0,1,11.348-5.674q6.118,0,9.109,3.384t3.059,9.98V0H48.33V-24.062q0-3.521-1.538-5.161T41.7-30.864a6.915,6.915,0,0,0-4.631,1.521,8.021,8.021,0,0,0-2.512,3.982L34.59,0H26.284V-24.336q-.171-6.528-6.665-6.528-4.99,0-7.075,4.067V0H4.238V-36.982ZM63.608-18.833a21.807,21.807,0,0,1,2.153-9.792,15.727,15.727,0,0,1,6.05-6.7,17.046,17.046,0,0,1,8.955-2.341,16.154,16.154,0,0,1,12.151,4.819q4.666,4.819,5.042,12.783l.034,1.948a22,22,0,0,1-2.1,9.775,15.538,15.538,0,0,1-6.016,6.665A17.171,17.171,0,0,1,80.835.684q-7.827,0-12.527-5.212t-4.7-13.894Zm8.306.718q0,5.708,2.358,8.938a7.667,7.667,0,0,0,6.563,3.23A7.583,7.583,0,0,0,87.38-9.229q2.341-3.281,2.341-9.6,0-5.605-2.41-8.887A7.694,7.694,0,0,0,80.767-31a7.624,7.624,0,0,0-6.46,3.23Q71.914-24.541,71.914-18.115Zm45.63,7.588,7.827-26.455h8.579L121.133,0h-7.212L101-36.982h8.613ZM147.964,0h-8.306V-36.982h8.306Zm-8.818-46.587a4.408,4.408,0,0,1,1.213-3.179,4.583,4.583,0,0,1,3.469-1.265,4.641,4.641,0,0,1,3.486,1.265,4.374,4.374,0,0,1,1.23,3.179,4.273,4.273,0,0,1-1.23,3.127,4.677,4.677,0,0,1-3.486,1.248,4.619,4.619,0,0,1-3.469-1.248A4.305,4.305,0,0,1,139.146-46.587ZM159.927,0V-30.83h-5.64v-6.152h5.64v-3.384q0-6.152,3.418-9.5t9.57-3.35a19.2,19.2,0,0,1,4.648.615l-.205,6.494a16.359,16.359,0,0,0-3.179-.273q-5.947,0-5.947,6.118v3.281h7.52v6.152h-7.52V0Zm43.989,0a12.818,12.818,0,0,1-.957-3.452A12.929,12.929,0,0,1,193.252.684,13.048,13.048,0,0,1,184.16-2.5a10.17,10.17,0,0,1-3.521-7.861,10.5,10.5,0,0,1,4.392-9.075q4.392-3.162,12.561-3.162h5.093V-25.02a6.478,6.478,0,0,0-1.606-4.6,6.368,6.368,0,0,0-4.888-1.726,7.316,7.316,0,0,0-4.648,1.418,4.39,4.39,0,0,0-1.812,3.606h-8.306a9.218,9.218,0,0,1,2.017-5.691,13.435,13.435,0,0,1,5.486-4.153,19.269,19.269,0,0,1,7.742-1.5q6.494,0,10.356,3.264t3.965,9.177v16.68a18.9,18.9,0,0,0,1.4,7.964V0ZM194.79-5.981a9.448,9.448,0,0,0,4.631-1.2,7.992,7.992,0,0,0,3.264-3.213v-6.973h-4.478q-4.614,0-6.938,1.606a5.2,5.2,0,0,0-2.324,4.546A4.854,4.854,0,0,0,190.535-7.4,6.154,6.154,0,0,0,194.79-5.981ZM231.7-15.859l-3.691,3.794V0h-8.306V-52.5h8.306v30.283l2.6-3.247,10.22-11.519h9.98L237.07-21.567,252.28,0h-9.6ZM271.831.684q-7.9,0-12.8-4.973t-4.9-13.245V-18.56a22.191,22.191,0,0,1,2.136-9.9,16.259,16.259,0,0,1,6-6.785,15.858,15.858,0,0,1,8.613-2.427q7.554,0,11.672,4.819t4.119,13.638v3.35H262.5a11.106,11.106,0,0,0,3.059,7.246,9.184,9.184,0,0,0,6.75,2.666,11.246,11.246,0,0,0,9.3-4.614l4.478,4.272a14.952,14.952,0,0,1-5.93,5.144A18.565,18.565,0,0,1,271.831.684ZM270.84-31a6.994,6.994,0,0,0-5.52,2.393,12.4,12.4,0,0,0-2.683,6.665h15.825v-.615a10.1,10.1,0,0,0-2.222-6.306A6.941,6.941,0,0,0,270.84-31Z" transform="translate(130.679 60.823)" fill="#00abe1"/>
  </g>
</svg>
