<?xml version="1.0" encoding="iso-8859-1"?>
<!-- Generator: Adobe Illustrator 19.0.0, SVG Export Plug-In . SVG Version: 6.00 Build 0)  -->
<svg version="1.1" id="Capa_1" xmlns="http://www.w3.org/2000/svg" xmlns:xlink="http://www.w3.org/1999/xlink" x="0px" y="0px"
	 viewBox="0 0 512 512" style="enable-background:new 0 0 512 512;" xml:space="preserve">
<g>
	<g>
		<path d="M365.232,124.25l-43.614-68.5H190.382l-43.614,68.5H0v332h512v-332H365.232z M206.846,85.75h98.309l24.513,38.5H182.333
			L206.846,85.75z M482,426.25H30v-272h452V426.25z"/>
	</g>
</g>
<g>
	<g>
		<path d="M256,182.75c-59.276,0-107.5,48.224-107.5,107.5s48.224,107.5,107.5,107.5s107.5-48.224,107.5-107.5
			S315.276,182.75,256,182.75z M256,367.75c-42.734,0-77.5-34.766-77.5-77.5s34.766-77.5,77.5-77.5s77.5,34.766,77.5,77.5
			S298.734,367.75,256,367.75z"/>
	</g>
</g>
<g>
	<g>
		<rect x="420.25" y="182.5" width="30.5" height="30.5"/>
	</g>
</g>
<g>
</g>
<g>
</g>
<g>
</g>
<g>
</g>
<g>
</g>
<g>
</g>
<g>
</g>
<g>
</g>
<g>
</g>
<g>
</g>
<g>
</g>
<g>
</g>
<g>
</g>
<g>
</g>
<g>
</g>
</svg>
