<svg id="Capa_1" enable-background="new 0 0 512 512" height="512" viewBox="0 0 512 512" width="512" xmlns="http://www.w3.org/2000/svg"><g><path d="m497 231c8.284 0 15-6.716 15-15s-6.716-15-15-15h-66v-50h66c8.284 0 15-6.716 15-15s-6.716-15-15-15h-66v-10c0-16.542-13.458-30-30-30h-10v-66c0-8.284-6.716-15-15-15s-15 6.716-15 15v66h-50v-66c0-8.284-6.716-15-15-15s-15 6.716-15 15v66h-50v-66c0-8.284-6.716-15-15-15s-15 6.716-15 15v66h-50v-66c0-8.284-6.716-15-15-15s-15 6.716-15 15v66h-10c-16.542 0-30 13.458-30 30v10h-66c-8.284 0-15 6.716-15 15s6.716 15 15 15h66v50h-66c-8.284 0-15 6.716-15 15s6.716 15 15 15h66v50h-66c-8.284 0-15 6.716-15 15s6.716 15 15 15h66v50h-66c-8.284 0-15 6.716-15 15s6.716 15 15 15h66v10c0 16.542 13.458 30 30 30h10v66c0 8.284 6.716 15 15 15s15-6.716 15-15v-66h50v66c0 8.284 6.716 15 15 15s15-6.716 15-15v-66h50v66c0 8.284 6.716 15 15 15s15-6.716 15-15v-66h50v66c0 8.284 6.716 15 15 15s15-6.716 15-15v-66h10c16.542 0 30-13.458 30-30v-10h66c8.284 0 15-6.716 15-15s-6.716-15-15-15h-66v-50h66c8.284 0 15-6.716 15-15s-6.716-15-15-15h-66v-50zm-96 170h-290v-290h290c.02 298.059.1 290 0 290z"/><path d="m316.606 165.394c-2.813-2.813-6.628-4.394-10.606-4.394h-100c-3.978 0-7.793 1.581-10.606 4.394l-30 30c-2.813 2.813-4.394 6.628-4.394 10.606v100c0 3.978 1.581 7.793 4.394 10.606l30 30c2.813 2.813 6.628 4.394 10.606 4.394h100c3.978 0 7.793-1.581 10.606-4.394l30-30c2.813-2.813 4.394-6.628 4.394-10.606v-100c0-3.978-1.581-7.793-4.394-10.606zm4.394 134.393-21.213 21.213h-87.573l-21.214-21.213v-87.573l21.213-21.214h87.573l21.214 21.213z"/></g></svg>